<svg width="142" height="55" xmlns="http://www.w3.org/2000/svg" fill="none">
 <defs>
  <clipPath id="clip0">
   <rect id="svg_1" fill="white" height="54.6747" width="141.812"/>
  </clipPath>
 </defs>
 <g>
  <title>Layer 1</title>
  <g stroke="null" id="svg_2" clip-path="url(#clip0)">
   <path stroke="null" id="svg_3" fill="#F54811" d="m20.86279,35.39615l-4.70975,-4.23258l0,0.00067l-0.343,-0.34132l0.01908,0.1381l-0.01917,-0.13944l-0.12304,-0.88905l-1.40589,-10.15545c0.02093,0.0236 0.04352,0.04746 0.0647,0.06889l4.71,4.23257l0,-0.00101l0.34266,0.34141l-0.019,-0.13777l0.01917,0.13927l0.12329,0.88914l1.40556,10.15546c-0.02084,-0.02361 -0.04327,-0.04779 -0.06462,-0.06888zm10.78504,-27.08321l-12.0591,-3.21215c-1.63682,-0.43583 -2.78115,0.58291 -2.54805,2.26228l1.83452,13.27341l-0.07357,-0.09148l-0.01774,-0.02318l-5.47116,-5.89626c-0.01155,-0.01297 -0.02042,-0.0216 -0.02879,-0.0329c-0.49851,-0.6095 -1.31826,-0.54781 -2.15031,0.29169l-4.86204,4.8964c-1.19337,1.20125 -2.36928,3.55671 -2.61154,5.23521l-2.62727,18.07104c-0.24325,1.67708 0.89478,3.40488 2.52815,3.84229l12.0588,3.21195c1.6369,0.43591 2.7814,-0.58263 2.54814,-2.26222l-1.83477,-13.27341l0.07374,0.09149l0.01774,0.02285l5.47116,5.89635c0.01163,0.01331 0.02051,0.02185 0.02879,0.03289c0.49859,0.6095 1.31834,0.54773 2.15065,-0.29144l4.86183,-4.89639c1.19338,-1.20158 2.36918,-3.55704 2.61141,-5.23538l2.62732,-18.07099c0.24331,-1.67666 -0.89474,-3.40448 -2.52788,-3.84204z" clip-rule="evenodd" fill-rule="evenodd"/>
   <path stroke="null" id="svg_4" fill="#090B21" d="m55.01894,41.28848c-0.05674,0.39656 -0.42812,0.72023 -0.8251,0.72023l-4.07815,0c-0.39732,0 -0.67503,-0.32367 -0.62013,-0.72023l2.05423,-14.57753c0,-0.32994 -0.09474,-0.57828 -0.28307,-0.74417c-0.18958,-0.16489 -0.24649,-0.17116 -0.24649,-0.17116c-0.39489,-0.04193 -1.04172,-0.07642 -1.43954,-0.07642l-2.15207,0c-0.50471,0 -1.00883,0.03858 -1.51303,0.115l-0.50387,0.07566c-0.36761,0.08378 -0.71412,0.47633 -0.76995,0.87348l-2.02777,14.50513c-0.05549,0.39632 -0.42503,0.72023 -0.82259,0.72023l-4.07857,0c-0.39515,0 -0.67529,-0.32391 -0.62004,-0.72023l2.59768,-18.70272c0.05549,-0.39565 0.42461,-0.71989 0.82217,-0.71989l3.548,0c0.3964,0 0.72132,0.32776 0.72132,0.72768l0,1.33265c0.62975,-0.81414 1.44833,-1.36011 2.45757,-1.64033c1.0079,-0.27981 2.94663,-0.38167 2.94663,-0.38167c0.39732,-0.02101 1.04498,-0.03833 1.44222,-0.03833l1.16986,0c0.88143,0 1.61154,0.08169 2.19182,0.24239c0.57945,0.16179 1.04105,0.40443 1.3802,0.72835c0.34057,0.32266 0.57443,0.72734 0.70039,1.21171c0.12471,0.4852 0.15133,1.00765 0.15133,1.00765c0.02084,0.40008 -0.00921,1.05026 -0.06638,1.44665l-2.13667,14.78586z" clip-rule="evenodd" fill-rule="evenodd"/>
   <path stroke="null" id="svg_5" fill="#090B21" d="m68.24515,17.32594c-0.05917,0.4087 -0.46218,0.74308 -0.89466,0.74308l-4.44835,0c-0.43448,0 -0.73907,-0.33438 -0.68014,-0.74308l0.48545,-3.34947c0.05968,-0.40812 0.46168,-0.74307 0.89583,-0.74307l4.44894,0c0.43264,0 0.73848,0.33496 0.67914,0.74307l-0.48621,3.34947zm-3.54582,23.94086c-0.06026,0.40853 -0.46319,0.74207 -0.89667,0.74207l-4.44935,0c-0.43381,0 -0.73781,-0.33354 -0.67863,-0.74207l2.83514,-19.27146c0.06077,-0.40878 0.46394,-0.74283 0.89667,-0.74283l4.44877,0c0.43306,0 0.73805,0.33404 0.67813,0.74283l-2.83405,19.27146z" clip-rule="evenodd" fill-rule="evenodd"/>
   <path stroke="null" id="svg_6" fill="#090B21" d="m84.26088,24.85057c-0.05541,0.401 -0.4318,0.72793 -0.83532,0.72793l-4.99984,0c-0.40326,0 -0.78183,0.32735 -0.84017,0.72643l-1.47269,10.06456l0,0.51944c0,0.17318 0.03264,0.33421 0.09726,0.48235c0.06319,0.14832 0.17861,0.266 0.34592,0.35204l0.16673,0.08612c0.32124,0.02502 0.91475,0.04403 1.31902,0.04403l3.4966,0c0.40443,0 0.69086,0.32734 0.63586,0.72734l-0.28633,2.12068c-1.20594,0.58875 -2.38023,0.95551 -3.52299,1.09596c-1.1419,0.14103 -2.05933,0.21142 -2.75261,0.21142c-0.77036,0 -1.47594,-0.04269 -2.11674,-0.13074c-0.64215,-0.08671 -1.19356,-0.27411 -1.65633,-0.56128c-0.46193,-0.28717 -0.82076,-0.7122 -1.07787,-1.27289c-0.25738,-0.56221 -0.32919,-1.49461 -0.32919,-1.49461c-0.02955,-0.40326 -0.00887,-1.05913 0.04947,-1.45913l1.56099,-10.78496c0.05791,-0.39941 -0.22515,-0.72676 -0.62926,-0.72676l-2.03514,0c-0.40426,0 -0.68758,-0.32693 -0.63234,-0.72793l0.29697,-2.12436c0.05649,-0.39941 0.43263,-0.72643 0.83615,-0.72643l2.03455,0c0.40477,0 0.78217,-0.32693 0.83916,-0.72709l0.56079,-3.89468c0.05758,-0.39975 0.43288,-0.763 0.8343,-0.80678l4.16144,-0.45591c0.40058,-0.04378 0.68407,0.24758 0.62666,0.64766l-0.64047,4.50945c-0.05649,0.40042 0.22809,0.72734 0.63159,0.72734l4.99927,0c0.40359,0 0.68758,0.32701 0.63226,0.72643l-0.29771,2.12436z" clip-rule="evenodd" fill-rule="evenodd"/>
   <path stroke="null" id="svg_7" fill="#090B21" d="m99.90633,25.79913c-0.05776,0.39757 -0.45616,0.72107 -0.8847,0.72107l-1.94936,0c-0.27286,0 -0.66624,0.01289 -1.18183,0.0375c-0.51559,0.02511 -1.06632,0.06219 -1.6497,0.1119c-0.58339,0.04905 -1.14501,0.10571 -1.68904,0.16732c-0.54405,0.06227 -0.54907,0.06378 -0.54907,0.06378c-0.41348,0.09818 -0.80268,0.50228 -0.86294,0.89884l-2.06067,13.48894c-0.06026,0.39656 -0.45951,0.72023 -0.88554,0.72023l-4.3911,0c-0.42812,0 -0.72778,-0.32367 -0.66792,-0.72023l2.7958,-18.7018c0.06026,-0.3969 0.45783,-0.72081 0.8847,-0.72081l3.77985,0c0.4277,0 0.77673,0.32776 0.77673,0.72768l0,1.59966c0.78677,-0.58522 1.72419,-1.11889 2.80894,-1.60167c1.08641,-0.48328 2.40132,-0.72567 3.94976,-0.72567l1.18015,0l0.40678,0c0.42519,0 0.72567,0.32391 0.66792,0.72081l-0.47875,3.21245z" clip-rule="evenodd" fill-rule="evenodd"/>
   <path stroke="null" id="svg_8" fill="#090B21" d="m111.40322,25.83386l-2.95792,0c-0.67461,0 -1.23205,0.12446 -1.67314,0.37271c-0.44025,0.24783 -0.60933,0.71529 -0.60933,0.71529c-0.13476,0.37732 -0.29713,1.01033 -0.35656,1.40606l-1.29147,8.36463c0,0.4031 0.18162,0.72793 0.54572,0.97627c0.36242,0.24884 0.81857,0.29579 0.81857,0.29579c0.40594,0.04202 1.07218,0.07767 1.4798,0.07767l2.17534,0c0.67378,0 1.23874,-0.13174 1.69407,-0.39163c0.45113,-0.2598 0.60011,-0.69411 0.60011,-0.69411c0.12891,-0.37982 0.28542,-1.0136 0.3482,-1.40907l1.28897,-8.29449c0,-0.94706 -0.68801,-1.41912 -2.06236,-1.41912zm6.41888,9.89926c-0.18163,1.21531 -0.52479,2.23149 -1.03117,3.04572c-0.50553,0.81573 -1.14166,1.45988 -1.90666,1.93462c-0.76418,0.47441 -1.65306,0.81054 -2.66498,1.00339c-1.01192,0.19435 -2.52688,0.2598 -2.52688,0.2598c-0.40762,0.01699 -1.07469,0.03205 -1.48399,0.03205l-2.17617,0c-1.16676,0 -2.19207,-0.08571 -3.07426,-0.25545c-0.88136,-0.17033 -1.62795,-0.46143 -2.23561,-0.87549c-0.61182,-0.41339 -1.06548,-0.97284 -1.36262,-1.67833c-0.29964,-0.70617 -0.39338,-1.9747 -0.39338,-1.9747c-0.0293,-0.39933 -0.00753,-1.05043 0.05106,-1.44616l1.17848,-8.07386c0.15652,-1.07143 0.50639,-1.97647 1.05042,-2.71829c0.54488,-0.74258 1.2128,-1.34396 2.00376,-1.80639c0.79262,-0.46135 1.66728,-0.79656 2.62731,-1.00363c0.95835,-0.20699 2.21551,-0.2716 2.21551,-0.2716c0.40762,-0.02159 1.07554,-0.03892 1.48399,-0.03892l2.60387,0c1.01109,0 1.946,0.09098 2.80057,0.27328c0.85625,0.18296 1.58945,0.48085 2.19961,0.89416c0.60851,0.41398 1.08893,0.95643 1.43879,1.62426c0.35071,0.66951 0.45617,1.77442 0.45617,1.77442c0.03849,0.39983 0.02008,1.04875 -0.04185,1.44506l-1.21197,7.85608z" clip-rule="evenodd" fill-rule="evenodd"/>
  </g>
 </g>
</svg>